<?xml version="1.0" encoding="UTF-8" standalone="no"?>
<svg
   xmlns:dc="http://purl.org/dc/elements/1.1/"
   xmlns:cc="http://creativecommons.org/ns#"
   xmlns:rdf="http://www.w3.org/1999/02/22-rdf-syntax-ns#"
   xmlns:svg="http://www.w3.org/2000/svg"
   xmlns="http://www.w3.org/2000/svg"
   xmlns:xlink="http://www.w3.org/1999/xlink"
   xmlns:sodipodi="http://sodipodi.sourceforge.net/DTD/sodipodi-0.dtd"
   xmlns:inkscape="http://www.inkscape.org/namespaces/inkscape"
   width="100"
   height="100"
   id="svg2"
   version="1.1"
   inkscape:version="0.48.4 r9939"
   sodipodi:docname="close.svg">
  <metadata
     id="metadata30">
    <rdf:RDF>
      <cc:Work
         rdf:about="">
        <dc:format>image/svg+xml</dc:format>
        <dc:type
           rdf:resource="http://purl.org/dc/dcmitype/StillImage" />
      </cc:Work>
    </rdf:RDF>
  </metadata>
  <sodipodi:namedview
     pagecolor="#ffffff"
     bordercolor="#666666"
     borderopacity="1"
     objecttolerance="10"
     gridtolerance="10"
     guidetolerance="10"
     inkscape:pageopacity="0"
     inkscape:pageshadow="2"
     inkscape:window-width="919"
     inkscape:window-height="690"
     id="namedview28"
     showgrid="false"
     inkscape:zoom="1.9186992"
     inkscape:cx="62"
     inkscape:cy="50.867544"
     inkscape:window-x="615"
     inkscape:window-y="325"
     inkscape:window-maximized="0"
     inkscape:current-layer="imagebot_1" />
  <defs
     id="defs4">
    <linearGradient
       id="imagebot_2">
      <stop
         stop-color="#eee"
         id="imagebot_24" />
      <stop
         stop-opacity="0"
         stop-color="#eee"
         offset="1"
         id="imagebot_23" />
    </linearGradient>
    <linearGradient
       id="imagebot_3">
      <stop
         id="imagebot_22" />
      <stop
         stop-opacity="0"
         offset="1"
         id="imagebot_21" />
    </linearGradient>
    <linearGradient
       id="imagebot_4">
      <stop
         stop-color="#444"
         id="imagebot_20" />
      <stop
         stop-color="#888"
         offset="1"
         id="imagebot_19" />
    </linearGradient>
    <radialGradient
       gradientTransform="matrix(1,0,0,0.18918919,0,99.404179)"
       gradientUnits="userSpaceOnUse"
       xlink:href="#imagebot_3"
       id="imagebot_7"
       r="18.17"
       cy="122.6"
       cx="27.499001" />
    <filter
       id="imagebot_8"
       color-interpolation-filters="sRGB"
       height="1.214"
       width="1.04"
       y="-0.107"
       x="-0.02">
      <feGaussianBlur
         id="imagebot_16"
         stdDeviation="0.3065" />
    </filter>
    <radialGradient
       gradientTransform="matrix(0.96920873,-1.2684057e-8,1.5627817e-8,1.1941408,-12.268873,25.071496)"
       gradientUnits="userSpaceOnUse"
       xlink:href="#imagebot_2"
       id="imagebot_9"
       r="56.926998"
       cy="-9.9879999"
       cx="64.260002" />
    <linearGradient
       x1="-1.9632419"
       xlink:href="#imagebot_4"
       id="imagebot_12"
       y2="2.7855084"
       x2="-1.9632419"
       y1="116.45863"
       gradientTransform="matrix(0.83894277,0,0,0.83878778,-2.2472795,22.998971)"
       gradientUnits="userSpaceOnUse" />
  </defs>
  <g
     id="imagebot_1"
     transform="translate(0,-23)">
    <path
       id="imagebot_13"
       d="m 2.003756,35.577496 c -2.67168644,2.671703 -2.67168644,7.005949 0,9.67765 L 29.737411,72.988774 2.003756,100.7224 c -2.67167805,2.67162 -2.67168644,7.00612 0,9.6779 l 10.618529,10.61836 c 2.671704,2.67178 6.96116,2.62649 9.632863,-0.0453 L 49.988803,93.240146 77.767252,121.01866 c 2.671704,2.67178 6.961577,2.62649 9.632527,-0.0453 l 10.573902,-10.57312 c 2.671809,-2.67178 2.716269,-6.96139 0.0453,-9.6331 L 70.240194,72.988774 97.973681,45.255146 c 2.671809,-2.671701 2.716269,-6.961152 0.0453,-9.632853 L 87.399779,25.003764 c -2.67095,-2.671685 -7.00562,-2.671685 -9.677325,0 L 49.988803,52.737399 22.255148,25.003764 c -2.671703,-2.671685 -7.005955,-2.671685 -9.677657,0 L 2.003756,35.577496 z"
       inkscape:connector-curvature="0"
       style="fill:#323232" />
    <path
       id="imagebot_11"
       d="m 17.419171,25.351725 c -1.141445,0 -2.30965,0.422177 -3.198175,1.310727 L 3.6564976,37.226874 c -1.7748049,1.774869 -1.7748049,4.595385 0,6.370171 l 27.7349874,27.73497 a 2.3481864,2.3481841 0 0 1 0,3.303031 L 3.6564976,102.37002 c -1.7747965,1.77478 -1.7748049,4.59512 0,6.37015 l 10.6169274,10.61668 c 1.780155,1.78009 4.526604,1.76498 6.317665,-0.0259 L 48.326087,91.595842 a 2.3481864,2.3481841 0 0 1 3.303033,0 l 27.787425,27.761048 c 1.774788,1.77506 4.558146,1.75996 6.34409,-0.0259 l 10.564674,-10.59067 c 1.796012,-1.79685 1.82705,-4.54287 0.05201,-6.31773 L 68.589978,74.635046 a 2.3481864,2.3481841 0 0 1 0,-3.303031 l 27.735331,-27.73497 c 1.796012,-1.796513 1.82705,-4.542873 0.05201,-6.317658 L 85.760635,26.662452 c -1.769167,-1.769376 -4.6271,-1.769376 -6.39652,0 L 51.62912,54.397432 a 2.3481864,2.3481841 0 0 1 -3.303033,0 L 20.59109,26.662452 c -0.899431,-0.899405 -2.030559,-1.310727 -3.171919,-1.310727 z"
       style="fill:url(#imagebot_12)"
       inkscape:connector-curvature="0" />
    <path
       id="imagebot_10"
       d="m 82.56204,26.111948 c -0.951609,0 -1.910266,0.36384 -2.647376,1.101009 L 52.179668,54.947893 c -1.214845,1.201926 -3.189285,1.201926 -4.404046,0 L 20.040626,27.212957 c -0.751204,-0.751135 -1.668922,-1.074795 -2.621455,-1.074795 -0.947583,0 -1.914711,0.341787 -2.64771,1.074795 L 4.2070032,37.777421 c -1.4803966,1.480345 -1.4803966,3.788733 0,5.269078 L 31.942033,70.781468 c 1.201843,1.214845 1.201843,3.189281 0,4.404041 L 4.2070032,102.92048 c -1.4803882,1.48042 -1.4803966,3.78873 0,5.26942 L 14.82389,118.80657 c 1.492844,1.49318 3.708121,1.48228 5.216736,-0.0259 L 47.775622,91.045341 c 1.214761,-1.201843 3.189201,-1.201843 4.404046,0 l 27.787427,27.761229 c 1.482608,1.48228 3.744192,1.4722 5.243243,-0.0259 L 95.774175,108.19 c 1.516668,-1.51667 1.537639,-3.73196 0.05284,-5.2169 L 68.03943,75.185509 c -1.201844,-1.21476 -1.201844,-3.189196 0,-4.404041 L 95.774175,43.046499 c 1.516668,-1.516501 1.537639,-3.731775 0.05284,-5.216649 L 85.210338,27.212957 C 84.472976,26.475788 83.514153,26.111948 82.56204,26.111948 z"
       style="fill:none;stroke:url(#imagebot_9);stroke-width:1.67773056"
       inkscape:connector-curvature="0" />
    <title
       id="title26">imagebot_1</title>
  </g>
</svg>
