<?xml version="1.0" encoding="UTF-8" standalone="no"?>
<!--part of the rodentia icon theme by sixsixfive released under CC0 (https://creativecommons.org/publicdomain/zero/1.0/) on openclipart-->

<svg
   xmlns:dc="http://purl.org/dc/elements/1.1/"
   xmlns:cc="http://creativecommons.org/ns#"
   xmlns:rdf="http://www.w3.org/1999/02/22-rdf-syntax-ns#"
   xmlns:svg="http://www.w3.org/2000/svg"
   xmlns="http://www.w3.org/2000/svg"
   xmlns:xlink="http://www.w3.org/1999/xlink"
   xmlns:sodipodi="http://sodipodi.sourceforge.net/DTD/sodipodi-0.dtd"
   xmlns:inkscape="http://www.inkscape.org/namespaces/inkscape"
   viewBox="0 0 100 100"
   id="svg2"
   version="1.1"
   inkscape:version="0.48.4 r9939"
   width="100%"
   height="100%"
   sodipodi:docname="maximize.svg">
  <metadata
     id="metadata26">
    <rdf:RDF>
      <cc:Work
         rdf:about="">
        <dc:format>image/svg+xml</dc:format>
        <dc:type
           rdf:resource="http://purl.org/dc/dcmitype/StillImage" />
      </cc:Work>
    </rdf:RDF>
  </metadata>
  <sodipodi:namedview
     pagecolor="#ffffff"
     bordercolor="#666666"
     borderopacity="1"
     objecttolerance="10"
     gridtolerance="10"
     guidetolerance="10"
     inkscape:pageopacity="0"
     inkscape:pageshadow="2"
     inkscape:window-width="1920"
     inkscape:window-height="1124"
     id="namedview24"
     showgrid="false"
     inkscape:zoom="2.4583333"
     inkscape:cx="-7.3535026"
     inkscape:cy="-12.051275"
     inkscape:window-x="0"
     inkscape:window-y="24"
     inkscape:window-maximized="1"
     inkscape:current-layer="svg2" />
  <defs
     id="0">
    <linearGradient
       id="8">
      <stop
         id="E"
         stop-color="#fff"
         stop-opacity="0.8" />
      <stop
         id="F"
         offset="1"
         stop-color="#fff"
         stop-opacity="0" />
    </linearGradient>
    <linearGradient
       id="9">
      <stop
         id="G"
         stop-color="#2e3436" />
      <stop
         id="H"
         offset="1"
         stop-color="#2e3436"
         stop-opacity="0" />
    </linearGradient>
    <linearGradient
       id="A">
      <stop
         id="I"
         stop-color="#eeeeec" />
      <stop
         id="J"
         offset="1"
         stop-color="#d3d7cf" />
    </linearGradient>
    <radialGradient
       cx="25.978001"
       cy="44.784"
       r="25.648001"
       id="B"
       xlink:href="#9"
       gradientUnits="userSpaceOnUse"
       gradientTransform="matrix(1,0,0,0.1189711,0,39.455735)" />
    <linearGradient
       y1="5.6560001"
       x2="0"
       y2="42.34"
       id="C"
       xlink:href="#8"
       gradientUnits="userSpaceOnUse" />
    <radialGradient
       cx="14.811"
       cy="12.225"
       r="21.815001"
       id="D"
       xlink:href="#A"
       gradientUnits="userSpaceOnUse"
       gradientTransform="matrix(0.00205886,0.8920877,-2.1481498,0.004958,41.040825,-0.9947773)" />
    <linearGradient
       inkscape:collect="always"
       xlink:href="#A"
       id="linearGradient3777"
       x1="9.3228531"
       y1="22.704514"
       x2="38.677147"
       y2="22.704514"
       gradientUnits="userSpaceOnUse"
       gradientTransform="matrix(3.0417994,0,0,3.0470765,-23.003183,-19.217301)" />
  </defs>
  <path
     d="m -152.14488,46.089371 c -0.48378,0 -0.84375,0.359971 -0.84375,0.84375 l 0,38.25 c 0,0.483779 0.35997,0.84375 0.84375,0.84375 l 38.21874,0 c 0.48379,0 0.84375,-0.35997 0.84375,-0.84375 l 0,-38.25 c 0,-0.483779 -0.35997,-0.84375 -0.84375,-0.84375 l -38.21874,0 z"
     id="4"
     inkscape:connector-curvature="0"
     style="fill:none;stroke:#ffffff;stroke-linecap:round;stroke-linejoin:round" />
  <path
     d="M 4.5631223,0.01736984 A 2.6687919,2.673422 0 0 0 4.2779537,0.11259899 C 1.83633,0.67889054 0.06706915,2.839363 0.09547956,5.3497626 l 0,31.3277544 a 2.6687919,2.673422 0 0 0 0,0.09523 c 0.04106459,2.047985 1.20042334,4.008356 3.23191184,4.856278 2.0314944,0.847927 4.2534298,0.331677 5.7984298,-1.142654 a 2.6687919,2.673422 0 0 0 0.095062,0 L 15.019313,34.677882 30.323367,50.008485 15.019313,65.339088 9.125827,59.435377 a 2.6687919,2.673422 0 0 0 -0.095062,0 C 7.4857629,57.961027 5.2638233,57.444784 3.2323352,58.292706 1.2008362,59.140625 0.04148727,61.101 4.2331527e-4,63.148985 a 2.6687919,2.673422 0 0 0 0,0.09523 l 0,31.422977 C 0.04165248,97.548343 2.4474137,99.958276 5.3235712,99.999576 l 31.3685558,0 a 2.6687919,2.673422 0 0 0 0.09506,0 c 2.044442,-0.04115 4.001415,-1.202509 4.847869,-3.237521 0.846458,-2.035016 0.3311,-4.260809 -1.140675,-5.808488 a 2.6687919,2.673422 0 0 0 0,-0.09523 L 34.600894,84.859406 49.809892,69.624023 65.209,85.049847 59.505627,90.858338 a 2.6687919,2.673422 0 0 0 0,0.09523 c -1.471777,1.547683 -1.987125,3.773478 -1.140675,5.808488 0.84645,2.035025 2.803425,3.196387 4.847867,3.237521 a 2.6687919,2.673422 0 0 0 0.09506,0 l 31.2735,0 c 2.876158,-0.04129 5.281921,-2.451238 5.32315,-5.332385 l 0,-31.422977 a 2.6687919,2.673422 0 0 0 0,-0.09523 c -0.04106,-2.047989 -1.200425,-4.008356 -3.231913,-4.856279 -2.031493,-0.847929 -4.253429,-0.331674 -5.798429,1.142654 a 2.6687919,2.673422 0 0 0 -0.09506,0 L 84.980689,65.243851 69.771694,50.103689 a 2.6687919,2.673422 0 0 0 -0.09506,-0.09523 2.6687919,2.673422 0 0 0 0,-0.09523 l 15.304052,-15.330601 5.893488,5.903709 a 2.6687919,2.673422 0 0 0 0.09506,0 c 1.545002,1.474331 3.766942,1.990573 5.798429,1.142654 2.0315,-0.847919 3.19085,-2.808289 3.231913,-4.856278 a 2.6687919,2.673422 0 0 0 0,-0.09523 l 0,-31.3277547 C 99.958366,2.4685902 97.552588,0.05865525 94.676426,0.01735526 l -31.368556,0 a 2.6687919,2.673422 0 0 0 -0.09506,0 C 61.168379,0.05850108 59.211404,1.2198613 58.36495,3.2548734 57.518489,5.2898917 58.033848,7.5156851 59.505625,9.0633639 a 2.6687919,2.673422 0 0 0 0,0.095229 L 65.304054,14.871861 49.904946,30.297687 34.600891,15.062304 40.494379,9.1585931 a 2.6687919,2.673422 0 0 0 0,-0.095229 C 41.96616,7.5156809 42.481506,5.2898855 41.635054,3.2548734 40.788602,1.2198509 38.831625,0.05849066 36.787185,0.01735526 a 2.6687919,2.673422 0 0 0 -0.09506,0 l -30.988331,0 c -0.094229,-0.01 -0.1906459,0.005 -0.2851688,0 -0.2835771,-0.015 -0.5728227,-0.03008333 -0.8555052,0 z"
     id="5"
     inkscape:connector-curvature="0"
     style="fill:#babdb6;fill-rule:evenodd" />
  <path
     d="M 4.848291,2.683561 A 2.7005581,2.7052434 0 0 0 2.7570539,5.3497542 l 0,31.3277548 a 2.7005581,2.7052434 0 0 0 4.5626986,1.904422 L 15.019307,30.86902 34.125608,50.008469 15.019307,69.147917 7.2246962,61.339783 a 2.7005581,2.7052434 0 0 0 -4.5626985,1.904423 l 0,31.422977 a 2.7005581,2.7052434 0 0 0 2.6615735,2.666191 l 31.3685558,0 a 2.7005581,2.7052434 0 0 0 1.901125,-4.570614 l -7.79461,-7.903354 19.011245,-19.04423 19.201359,19.234671 -7.604498,7.712913 a 2.7005581,2.7052434 0 0 0 1.901123,4.570614 l 31.273499,0 a 2.7005581,2.7052434 0 0 0 2.661575,-2.666191 l 0,-31.422977 a 2.7005581,2.7052434 0 0 0 -4.5627,-1.904423 L 84.980691,69.052696 67.680458,51.722447 a 2.7005581,2.7052434 0 0 0 -0.09506,0 l -0.09506,-0.190437 a 2.7005581,2.7052434 0 0 0 -0.380212,-0.285663 l -0.09506,0 -1.235731,-1.333097 0.950562,-1.047431 0.285169,-0.09523 a 2.7005581,2.7052434 0 0 0 0.190104,-0.190438 2.7005581,2.7052434 0 0 0 0.380225,-0.285662 l 17.39529,-17.520691 7.79461,7.808134 a 2.7005581,2.7052434 0 0 0 4.5627,-1.904422 l 0,-31.3277547 A 2.7005581,2.7052434 0 0 0 94.67642,2.6835631 l -31.368556,0 A 2.7005581,2.7052434 0 0 0 61.406741,7.2541789 L 69.106295,14.871869 49.904937,34.10654 30.798635,15.062313 38.593245,7.2541789 A 2.7005581,2.7052434 0 0 0 36.69212,2.6835631 l -31.2734991,0 a 2.7005581,2.7052434 0 0 0 -0.5703365,0 z"
     id="6"
     style="fill:#000000;fill-opacity:1;fill-rule:evenodd"
     inkscape:connector-curvature="0" />
  <path
     d="m 5.4189796,5.3067313 0,31.3728977 9.5873144,-9.603946 22.881729,22.921425 -22.881729,22.921425 -9.651229,-9.667973 0,31.372898 31.318562,0 -9.715146,-9.732 22.881729,-22.921427 23.009561,23.049479 -9.587317,9.603948 31.318566,0 0,-31.372898 -9.587316,9.603948 -19.238546,-19.271926 -0.06392,0.06402 -3.707095,-3.713528 3.643181,-3.649497 0.06392,0.06402 19.302465,-19.335954 9.651231,9.667975 0,-31.3729002 -31.318564,0 9.587314,9.6039522 -23.00956,23.049475 -22.881729,-22.921423 9.715148,-9.7320042 -31.3185643,0 z"
     id="7"
     style="fill:url(#linearGradient3777);fill-opacity:1;fill-rule:evenodd"
     inkscape:connector-curvature="0" />
</svg>
